<svg version="1.1" id="Layer_1" xmlns="http://www.w3.org/2000/svg" xmlns:xlink="http://www.w3.org/1999/xlink"
	style="background-color: transparent;">
	<path fill="#00000" opacity="1.000000" stroke="none"
		d="
M513.000000,161.000000 
	C513.000000,171.354233 513.000000,181.708450 512.531372,192.531342 
	C496.496521,193.000000 480.930328,193.000000 465.339050,193.000000 
	C465.339050,209.248428 465.339050,225.068726 465.339050,241.000000 
	C481.451904,241.000000 497.225952,241.000000 513.000000,241.000000 
	C513.000000,251.354233 513.000000,261.708466 512.531372,272.531342 
	C496.496521,273.000000 480.930328,273.000000 465.339050,273.000000 
	C465.339050,289.248413 465.339050,305.068726 465.339050,321.000000 
	C481.451904,321.000000 497.225952,321.000000 513.000000,321.000000 
	C513.000000,331.354218 513.000000,341.708466 512.531372,352.531342 
	C496.471436,353.000000 480.880157,353.000000 465.000000,353.000000 
	C465.000000,356.958313 465.073303,360.426178 464.986694,363.890045 
	C464.689209,375.787415 465.382416,387.826508 463.779785,399.549347 
	C460.704010,422.048035 448.363464,439.319305 429.782623,451.933105 
	C416.963318,460.635529 402.724274,465.435699 386.926941,465.052826 
	C375.683777,464.780396 364.428680,465.000000 353.000000,465.000000 
	C353.000000,481.402069 353.000000,497.201050 353.000000,513.000000 
	C342.645782,513.000000 332.291534,513.000000 321.468658,512.531372 
	C321.000000,496.496521 321.000000,480.930328 321.000000,465.339050 
	C304.751587,465.339050 288.931274,465.339050 273.000000,465.339050 
	C273.000000,481.451904 273.000000,497.225952 273.000000,513.000000 
	C262.645782,513.000000 252.291550,513.000000 241.468658,512.531372 
	C241.000000,496.496521 241.000000,480.930328 241.000000,465.339050 
	C224.751572,465.339050 208.931274,465.339050 193.000000,465.339050 
	C193.000000,481.451904 193.000000,497.225952 193.000000,513.000000 
	C182.645767,513.000000 172.291550,513.000000 161.468658,512.531372 
	C161.000000,496.471436 161.000000,480.880157 161.000000,465.000000 
	C157.039444,465.000000 153.572693,465.073303 150.109955,464.986725 
	C138.212585,464.689240 126.173531,465.382416 114.450714,463.779816 
	C91.952011,460.704041 74.680710,448.363495 62.066906,429.782593 
	C53.364433,416.963318 48.564339,402.724243 48.947144,386.926910 
	C49.219589,375.683746 49.000000,364.428680 49.000000,353.000000 
	C32.597916,353.000000 16.798958,353.000000 1.000000,353.000000 
	C1.000000,342.645782 1.000000,332.291534 1.468657,321.468658 
	C17.503502,321.000000 33.069691,321.000000 48.660954,321.000000 
	C48.660954,304.751556 48.660954,288.931274 48.660954,273.000000 
	C32.548088,273.000000 16.774044,273.000000 1.000000,273.000000 
	C1.000000,262.645782 1.000000,252.291550 1.468657,241.468658 
	C17.503496,241.000000 33.069675,241.000000 48.660957,241.000000 
	C48.660957,224.751556 48.660957,208.931259 48.660957,193.000000 
	C32.548092,193.000000 16.774046,193.000000 1.000000,193.000000 
	C1.000000,182.645767 1.000000,172.291550 1.468657,161.468658 
	C17.528549,161.000000 33.119785,161.000000 49.000000,161.000000 
	C49.000000,157.039505 48.926723,153.572769 49.013306,150.110031 
	C49.310783,138.212646 48.617584,126.173569 50.220181,114.450729 
	C53.295918,91.952003 65.636543,74.680740 84.217407,62.066925 
	C97.036667,53.364437 111.275734,48.564350 127.073051,48.947144 
	C138.316223,49.219585 149.571320,49.000000 161.000000,49.000000 
	C161.000000,32.597923 161.000000,16.798962 161.000000,1.000000 
	C171.354233,1.000000 181.708450,1.000000 192.531342,1.468657 
	C193.000000,17.503496 193.000000,33.069675 193.000000,48.660957 
	C209.248444,48.660957 225.068741,48.660957 241.000000,48.660957 
	C241.000000,32.548092 241.000000,16.774046 241.000000,1.000000 
	C251.354233,1.000000 261.708466,1.000000 272.531342,1.468657 
	C273.000000,17.503502 273.000000,33.069691 273.000000,48.660954 
	C289.248444,48.660954 305.068726,48.660954 321.000000,48.660954 
	C321.000000,32.548088 321.000000,16.774044 321.000000,1.000000 
	C331.354218,1.000000 341.708466,1.000000 352.531342,1.468657 
	C353.000000,17.528580 353.000000,33.119846 353.000000,49.000000 
	C356.958344,49.000000 360.426208,48.926704 363.890076,49.013309 
	C375.787445,49.310768 387.826538,48.617569 399.549347,50.220188 
	C422.048065,53.295979 439.319305,65.636566 451.933105,84.217468 
	C460.635590,97.036766 465.435577,111.275841 465.052856,127.073112 
	C464.780457,138.316269 465.000000,149.571350 465.000000,161.000000 
	C481.402100,161.000000 497.201050,161.000000 513.000000,161.000000 
M423.508942,102.000916 
	C422.778687,100.938858 422.123596,99.814812 421.306793,98.824112 
	C410.651306,85.900162 396.289551,81.041679 380.231995,81.074615 
	C295.155914,81.249100 210.079468,81.554367 125.006424,82.228752 
	C118.698021,82.278755 111.761108,84.440544 106.242264,87.592148 
	C88.944847,97.470024 81.036942,113.406319 81.073936,132.957092 
	C81.235229,218.199814 81.635139,303.442169 82.040512,388.684235 
	C82.090279,399.151459 86.643364,407.947083 93.289604,415.816254 
	C104.005501,428.503967 118.306870,432.966400 134.146011,432.931366 
	C219.222076,432.743225 304.298615,432.450623 389.371460,431.759888 
	C395.643951,431.708954 402.495453,429.305084 408.033844,426.158020 
	C425.445892,416.263916 432.904877,400.159332 432.938934,380.664642 
	C433.083008,298.172821 433.114349,215.680283 432.860962,133.189011 
	C432.827820,122.398987 431.114380,111.554031 423.508942,102.000916 
z"/>
	<path fill="transparent" opacity="1.000000" stroke="none"
		d="
M160.531342,1.000000 
	C161.000000,16.798962 161.000000,32.597923 161.000000,49.000000 
	C149.571320,49.000000 138.316223,49.219585 127.073051,48.947144 
	C111.275734,48.564350 97.036667,53.364437 84.217407,62.066925 
	C65.636543,74.680740 53.295918,91.952003 50.220181,114.450729 
	C48.617584,126.173569 49.310783,138.212646 49.013306,150.110031 
	C48.926723,153.572769 49.000000,157.039505 49.000000,161.000000 
	C33.119785,161.000000 17.528549,161.000000 1.468657,161.000000 
	C1.000000,107.739655 1.000000,54.479317 1.000000,1.000000 
	C54.020695,1.000000 107.041687,1.000000 160.531342,1.000000 
z"/>
	<path fill="transparent" opacity="1.000000" stroke="none"
		d="
M513.000000,160.531342 
	C497.201050,161.000000 481.402100,161.000000 465.000000,161.000000 
	C465.000000,149.571350 464.780457,138.316269 465.052856,127.073112 
	C465.435577,111.275841 460.635590,97.036766 451.933105,84.217468 
	C439.319305,65.636566 422.048065,53.295979 399.549347,50.220188 
	C387.826538,48.617569 375.787445,49.310768 363.890076,49.013309 
	C360.426208,48.926704 356.958344,49.000000 353.000000,49.000000 
	C353.000000,33.119846 353.000000,17.528580 353.000000,1.468657 
	C406.260345,1.000000 459.520660,1.000000 513.000000,1.000000 
	C513.000000,54.020695 513.000000,107.041687 513.000000,160.531342 
z"/>
	<path fill="transparent" opacity="1.000000" stroke="none"
		d="
M353.468658,513.000000 
	C353.000000,497.201050 353.000000,481.402069 353.000000,465.000000 
	C364.428680,465.000000 375.683777,464.780396 386.926941,465.052826 
	C402.724274,465.435699 416.963318,460.635529 429.782623,451.933105 
	C448.363464,439.319305 460.704010,422.048035 463.779785,399.549347 
	C465.382416,387.826508 464.689209,375.787415 464.986694,363.890045 
	C465.073303,360.426178 465.000000,356.958313 465.000000,353.000000 
	C480.880157,353.000000 496.471436,353.000000 512.531372,353.000000 
	C513.000000,406.260345 513.000000,459.520660 513.000000,513.000000 
	C459.979309,513.000000 406.958313,513.000000 353.468658,513.000000 
z"/>
	<path fill="transparent" opacity="1.000000" stroke="none"
		d="
M1.000000,353.468658 
	C16.798958,353.000000 32.597916,353.000000 49.000000,353.000000 
	C49.000000,364.428680 49.219589,375.683746 48.947144,386.926910 
	C48.564339,402.724243 53.364433,416.963318 62.066906,429.782593 
	C74.680710,448.363495 91.952011,460.704041 114.450714,463.779816 
	C126.173531,465.382416 138.212585,464.689240 150.109955,464.986725 
	C153.572693,465.073303 157.039444,465.000000 161.000000,465.000000 
	C161.000000,480.880157 161.000000,496.471436 161.000000,512.531372 
	C107.739670,513.000000 54.479336,513.000000 1.000000,513.000000 
	C1.000000,459.979309 1.000000,406.958313 1.000000,353.468658 
z"/>
	<path fill="transparent" opacity="1.000000" stroke="none"
		d="
M273.468658,513.000000 
	C273.000000,497.225952 273.000000,481.451904 273.000000,465.339050 
	C288.931274,465.339050 304.751587,465.339050 321.000000,465.339050 
	C321.000000,480.930328 321.000000,496.496521 321.000000,512.531372 
	C305.312439,513.000000 289.624878,513.000000 273.468658,513.000000 
z"/>
	<path fill="transparent" opacity="1.000000" stroke="none"
		d="
M193.468658,513.000000 
	C193.000000,497.225952 193.000000,481.451904 193.000000,465.339050 
	C208.931274,465.339050 224.751572,465.339050 241.000000,465.339050 
	C241.000000,480.930328 241.000000,496.496521 241.000000,512.531372 
	C225.312439,513.000000 209.624878,513.000000 193.468658,513.000000 
z"/>
	<path fill="transparent" opacity="1.000000" stroke="none"
		d="
M513.000000,320.531342 
	C497.225952,321.000000 481.451904,321.000000 465.339050,321.000000 
	C465.339050,305.068726 465.339050,289.248413 465.339050,273.000000 
	C480.930328,273.000000 496.496521,273.000000 512.531372,273.000000 
	C513.000000,288.687561 513.000000,304.375122 513.000000,320.531342 
z"/>
	<path fill="transparent" opacity="1.000000" stroke="none"
		d="
M1.000000,273.468658 
	C16.774044,273.000000 32.548088,273.000000 48.660954,273.000000 
	C48.660954,288.931274 48.660954,304.751556 48.660954,321.000000 
	C33.069691,321.000000 17.503502,321.000000 1.468657,321.000000 
	C1.000000,305.312439 1.000000,289.624878 1.000000,273.468658 
z"/>
	<path fill="transparent" opacity="1.000000" stroke="none"
		d="
M513.000000,240.531342 
	C497.225952,241.000000 481.451904,241.000000 465.339050,241.000000 
	C465.339050,225.068726 465.339050,209.248428 465.339050,193.000000 
	C480.930328,193.000000 496.496521,193.000000 512.531372,193.000000 
	C513.000000,208.687561 513.000000,224.375122 513.000000,240.531342 
z"/>
	<path fill="transparent" opacity="1.000000" stroke="none"
		d="
M1.000000,193.468658 
	C16.774046,193.000000 32.548092,193.000000 48.660957,193.000000 
	C48.660957,208.931259 48.660957,224.751556 48.660957,241.000000 
	C33.069675,241.000000 17.503496,241.000000 1.468657,241.000000 
	C1.000000,225.312439 1.000000,209.624878 1.000000,193.468658 
z"/>
	<path fill="transparent" opacity="1.000000" stroke="none"
		d="
M320.531342,1.000000 
	C321.000000,16.774044 321.000000,32.548088 321.000000,48.660954 
	C305.068726,48.660954 289.248444,48.660954 273.000000,48.660954 
	C273.000000,33.069691 273.000000,17.503502 273.000000,1.468657 
	C288.687561,1.000000 304.375122,1.000000 320.531342,1.000000 
z"/>
	<path fill="transparent" opacity="1.000000" stroke="none"
		d="
M240.531342,1.000000 
	C241.000000,16.774046 241.000000,32.548092 241.000000,48.660957 
	C225.068741,48.660957 209.248444,48.660957 193.000000,48.660957 
	C193.000000,33.069675 193.000000,17.503496 193.000000,1.468657 
	C208.687561,1.000000 224.375122,1.000000 240.531342,1.000000 
z"/>
	<path fill="transparent" opacity="1.000000" stroke="none"
		d="
M423.766357,102.269012 
	C431.114380,111.554031 432.827820,122.398987 432.860962,133.189011 
	C433.114349,215.680283 433.083008,298.172821 432.938934,380.664642 
	C432.904877,400.159332 425.445892,416.263916 408.033844,426.158020 
	C402.495453,429.305084 395.643951,431.708954 389.371460,431.759888 
	C304.298615,432.450623 219.222076,432.743225 134.146011,432.931366 
	C118.306870,432.966400 104.005501,428.503967 93.289604,415.816254 
	C86.643364,407.947083 82.090279,399.151459 82.040512,388.684235 
	C81.635139,303.442169 81.235229,218.199814 81.073936,132.957092 
	C81.036942,113.406319 88.944847,97.470024 106.242264,87.592148 
	C111.761108,84.440544 118.698021,82.278755 125.006424,82.228752 
	C210.079468,81.554367 295.155914,81.249100 380.231995,81.074615 
	C396.289551,81.041679 410.651306,85.900162 421.306793,98.824112 
	C422.123596,99.814812 422.778687,100.938858 423.766357,102.269012 
M166.599762,353.000000 
	C175.355621,353.000000 184.111465,353.000000 193.249908,353.000000 
	C193.249908,333.949982 193.249908,315.543396 193.249908,297.325745 
	C209.388000,297.325745 225.126480,297.325745 241.256042,297.325745 
	C241.256042,316.056274 241.256042,334.462921 241.256042,352.670288 
	C252.063141,352.670288 262.470032,352.670288 272.999939,352.670288 
	C272.999939,304.525452 273.000183,256.710205 272.997650,208.894974 
	C272.997620,208.230484 273.081879,207.536896 272.927399,206.905701 
	C268.130707,187.305649 257.551270,172.602219 238.322906,164.627914 
	C227.884003,160.298752 217.030365,159.769180 206.464142,161.503403 
	C192.805603,163.745148 181.169662,170.671539 172.498688,181.953735 
	C166.068741,190.320023 161.251587,199.663284 161.165558,210.135208 
	C160.783585,256.624725 161.000061,303.119171 161.000092,349.611816 
	C161.000092,350.578094 161.000092,351.544373 161.000092,353.000000 
	C162.737839,353.000000 164.180267,353.000000 166.599762,353.000000 
M321.000000,218.500000 
	C321.000000,263.258728 321.000000,308.017456 321.000000,352.713196 
	C331.975220,352.713196 342.380798,352.713196 352.716370,352.713196 
	C352.716370,288.692413 352.716370,224.958817 352.716370,161.286774 
	C342.024811,161.286774 331.619232,161.286774 321.000000,161.286774 
	C321.000000,180.215149 321.000000,198.857574 321.000000,218.500000 
z"/>
	<path fill="#000000" opacity="1.000000" stroke="none"
		d="
M166.111221,353.000000 
	C164.180267,353.000000 162.737839,353.000000 161.000092,353.000000 
	C161.000092,351.544373 161.000092,350.578094 161.000092,349.611816 
	C161.000061,303.119171 160.783585,256.624725 161.165558,210.135208 
	C161.251587,199.663284 166.068741,190.320023 172.498688,181.953735 
	C181.169662,170.671539 192.805603,163.745148 206.464142,161.503403 
	C217.030365,159.769180 227.884003,160.298752 238.322906,164.627914 
	C257.551270,172.602219 268.130707,187.305649 272.927399,206.905701 
	C273.081879,207.536896 272.997620,208.230484 272.997650,208.894974 
	C273.000183,256.710205 272.999939,304.525452 272.999939,352.670288 
	C262.470032,352.670288 252.063141,352.670288 241.256042,352.670288 
	C241.256042,334.462921 241.256042,316.056274 241.256042,297.325745 
	C225.126480,297.325745 209.388000,297.325745 193.249908,297.325745 
	C193.249908,315.543396 193.249908,333.949982 193.249908,353.000000 
	C184.111465,353.000000 175.355621,353.000000 166.111221,353.000000 
M233.439484,265.000000 
	C235.873383,265.000000 238.307297,265.000000 240.001770,265.000000 
	C240.001770,247.957245 240.244141,231.441040 239.921051,214.935913 
	C239.684814,202.867599 229.396637,195.248993 221.744232,194.099777 
	C206.785324,191.853271 197.350357,200.635712 195.009033,210.226227 
	C194.020065,214.277191 193.158737,218.471252 193.089600,222.614456 
	C192.854996,236.676285 193.000000,250.744461 193.000000,265.000000 
	C206.548233,265.000000 219.502090,265.000000 233.439484,265.000000 
z"/>
	<path fill="#000000" opacity="1.000000" stroke="none"
		d="
M321.000000,218.000000 
	C321.000000,198.857574 321.000000,180.215149 321.000000,161.286774 
	C331.619232,161.286774 342.024811,161.286774 352.716370,161.286774 
	C352.716370,224.958817 352.716370,288.692413 352.716370,352.713196 
	C342.380798,352.713196 331.975220,352.713196 321.000000,352.713196 
	C321.000000,308.017456 321.000000,263.258728 321.000000,218.000000 
z"/>
	<path fill="transparent" opacity="1.000000" stroke="none"
		d="
M232.947723,265.000000 
	C219.502090,265.000000 206.548233,265.000000 193.000000,265.000000 
	C193.000000,250.744461 192.854996,236.676285 193.089600,222.614456 
	C193.158737,218.471252 194.020065,214.277191 195.009033,210.226227 
	C197.350357,200.635712 206.785324,191.853271 221.744232,194.099777 
	C229.396637,195.248993 239.684814,202.867599 239.921051,214.935913 
	C240.244141,231.441040 240.001770,247.957245 240.001770,265.000000 
	C238.307297,265.000000 235.873383,265.000000 232.947723,265.000000 
z"/>
</svg>